# xmcd CD database file
#
# Track frame offsets:
#	150
#	12857
#	30691
#	43997
#	56527
#	72635
#	83432
#	96935
#	114765
#	136672
#	154775
#	178162
#	194664
#	211416
#	225872
#	240250
#
# Disc length: 3345 seconds
#
# Revision: 0
# Processed by: cddbd v1.5.2PL0 Copyright (c) Steve Scherf et al.
# Submitted via: CDex 1.51
#
DISCID=cb0d0f10
DTITLE=Various Artist - Train of Love - A Tribute to Johnny Cash
DYEAR=2005
DGENRE=Country
TTITLE0=Laurie Lewis - Train Of Love
TTITLE1=The DiMaggio Brothers - Hey Porter
TTITLE2=The Schankman Twins - Home Of The Blues
TTITLE3=Brantley Kearns - Big River
TTITLE4=Phill Lee - I Got Stripes
TTITLE5=COD Express - Tennessee Flat Top Box
TTITLE6=Faye Pierce - 40 Shades Of Green
TTITLE7=Adz - Jackson
TTITLE8=Wayne Kramer - One Piece At A Time
TTITLE9=Lone Prairie - Don't Take Your Guns To Town
TTITLE10=Russle Means and Simon Stokes - Ballad Of Ira Hayes
TTITLE11=Col. Jim Silvers - You're The Nearest Thing To Heaven
TTITLE12=Soda And His Million Piece Band - Folsom Prison Blues (Bonus Track)
TTITLE13=Soda And His Million Piece Band - Ring Of Fire (Bonus Track)
TTITLE14=Harry Fontana - Get Rhythm (Bonus Track)
TTITLE15=Carey Kotsionis - Wide Open Road (Bonus Track)
EXTD=YEAR: 2005
EXTT0=
EXTT1=
EXTT2=
EXTT3=
EXTT4=
EXTT5=
EXTT6=
EXTT7=
EXTT8=
EXTT9=
EXTT10=
EXTT11=
EXTT12=
EXTT13=
EXTT14=
EXTT15=
PLAYORDER=
